<?xml version="1.0" encoding="UTF-8"?>
<svg id="Layer_2" data-name="Layer 2" xmlns="http://www.w3.org/2000/svg" viewBox="0 0 797.22 255.4">
  <defs>
    <style>
      .cls-1 {
        fill: #fff;
      }

      .cls-2 {
        fill: #010101;
      }
    </style>
  </defs>
  <g id="Layer_1-2" data-name="Layer 1">
    <g>
      <g>
        <path class="cls-1" d="M681.95,216.32c-5.77,0-14.82-10.32-19.7-16.46-6.96-8.77-13.4-18.24-19.62-27.4-6.88-10.12-13.99-20.58-21.82-30.13l-.08-.1-.05-.11c-2.48-5.27-2.11-10.98.98-14.92l.04-.06,42.83-41.03c1.49-3.04,1.47-6.45-.06-8.94-1.14-1.85-2.95-2.91-4.97-2.91-1.58,0-3.22.61-4.88,1.8-7.08,7.95-15.22,15.19-23.1,22.2-7.07,6.29-14.38,12.8-20.84,19.75-7.47,8.03-6.87,18.58-6.25,29.75.3,5.38.61,10.94-.09,16.11-1.19,8.77-7.69,12.69-13.6,12.69-6.44,0-13.09-4.69-13.35-13.67l-.05-141.91c-.7-4.93-4.09-9.22-9.08-11.49-1.11-.5-2.37-.75-3.59-.99-2.01-.39-3.9-.76-4.88-2.29-.65-1.01-.76-2.36-.33-4.12l.2-.83.85.07c1.14.1,2.39.14,3.8.14h0c2.06,0,4.22-.1,6.31-.2,2.11-.1,4.29-.2,6.39-.2,1.91,0,3.55.08,5.03.26,12.72,1.5,21.31,10.46,22.41,23.37,1.17,13.57,1.58,46.16-.12,59.17-1.03,7.83-6.21,12.8-11.21,17.59-4.39,4.21-8.54,8.18-9.47,13.76-1.07,6.39-.97,45.98.52,50.5.98,2.97,3.4,4.74,6.49,4.74,2.84,0,6.22-1.67,7.37-5.39,1.58-5.13,1.11-11.69.6-18.65-.73-10.12-1.49-20.59,3.99-28.2,6.44-8.94,16.58-17.8,26.38-26.37,7.97-6.97,16.21-14.18,22.16-21.2l.09-.11.12-.08c2.29-1.5,4.9-2.29,7.55-2.29,4.41,0,8.6,2.13,11.21,5.71,2.5,3.43,3.14,7.62,1.8,11.79-1.21,3.77-8.38,10.24-15.96,17.1-5.51,4.98-11.2,10.12-13.16,13.13-1.99,2.69-1.66,6.36-1.01,9.04l56.03,77.7c3.19,4.47,8.64,6.15,12.66,6.78l.83.13.14,6.76h-29.52Z"/>
        <path class="cls-2" d="M577.04,2.07c1.69,0,3.34.07,4.91.25,12.32,1.45,20.48,10.21,21.54,22.46,1.16,13.55,1.59,45.91-.12,58.95-1.88,14.31-18.6,18.93-20.68,31.32-1.05,6.3-1.08,46.01.56,50.98,1.22,3.7,4.29,5.43,7.44,5.43,3.51,0,7.11-2.15,8.33-6.09,3.96-12.85-4.53-34.1,4.45-46.55,11.64-16.15,35.24-31.86,48.49-47.51,2.25-1.47,4.66-2.13,7-2.13,7.87,0,14.87,7.45,12.06,16.19-2.04,6.33-24.44,22.97-29.01,29.99-2.11,2.86-1.93,6.7-1.1,10.02l56.14,77.85c3.09,4.33,8.2,6.38,13.31,7.18l.1,4.9h-28.5c-5.64,0-15.49-11.77-18.91-16.09-14.62-18.43-26.49-39.31-41.45-57.54-2.11-4.48-2.28-9.87.86-13.88l42.9-41.1c3.32-6.54-.18-13.46-5.85-13.46-1.7,0-3.59.62-5.55,2.06-13.43,15.08-30.31,27.28-43.99,42.01-11.57,12.45-4.5,31-6.6,46.4-1.08,7.97-6.87,11.82-12.61,11.82-6.09,0-12.11-4.34-12.35-12.69l-.05-141.95c-.76-5.6-4.65-10.05-9.67-12.33-4.14-1.88-9.66-.4-8.24-6.26,1.26.11,2.56.15,3.89.15,4.16,0,8.55-.4,12.7-.4M577.04.07c-2.12,0-4.31.1-6.43.2-2.08.1-4.23.2-6.26.2-1.39,0-2.61-.05-3.72-.14l-1.71-.14-.4,1.67c-.49,2.04-.34,3.64.46,4.9,1.21,1.89,3.41,2.32,5.53,2.73,1.16.23,2.36.46,3.36.92,4.66,2.12,7.83,6.09,8.5,10.65l.05,141.81v.06c.28,9.61,7.43,14.64,14.35,14.64,6.34,0,13.31-4.19,14.59-13.55.72-5.26.4-10.87.1-16.3-.61-10.95-1.19-21.29,5.98-29.01,6.42-6.91,13.72-13.4,20.77-19.68,7.87-7,16-14.24,23.1-22.19,1.44-1.02,2.89-1.55,4.2-1.55,1.69,0,3.15.86,4.12,2.43,1.33,2.16,1.35,5.13.09,7.82l-42.64,40.85-.1.1-.09.11c-3.32,4.23-3.74,10.35-1.09,15.96l.11.22.16.19c7.81,9.51,14.9,19.96,21.77,30.06,6.23,9.17,12.68,18.66,19.66,27.46,6.1,7.68,14.6,16.84,20.48,16.84h30.54l-.04-2.04-.1-4.9-.03-1.68-1.66-.26c-3.82-.6-9.01-2.19-11.99-6.37l-55.92-77.54c-.57-2.45-.83-5.7.85-7.97l.04-.05.03-.05c1.89-2.9,7.53-8,12.99-12.94,9.03-8.16,15.04-13.79,16.24-17.53,1.44-4.48.75-8.99-1.94-12.69-2.79-3.83-7.29-6.12-12.02-6.12-2.84,0-5.64.85-8.09,2.46l-.24.16-.19.22c-5.89,6.97-14.11,14.15-22.05,21.09-9.84,8.61-20.02,17.51-26.53,26.54-5.69,7.9-4.92,18.55-4.18,28.85.5,6.85.96,13.33-.56,18.28-1,3.23-3.94,4.68-6.41,4.68-2.63,0-4.7-1.52-5.54-4.05-1.47-4.46-1.54-43.69-.48-50.02.88-5.25,4.91-9.12,9.18-13.21,4.89-4.69,10.44-10,11.51-18.19,1.72-13.06,1.3-45.77.13-59.38-1.15-13.42-10.08-22.72-23.29-24.28-1.52-.18-3.2-.27-5.15-.27h0Z"/>
      </g>
      <g>
        <path class="cls-1" d="M184.51,246.64c-20.87,0-42.27-.53-62.97-1.05-20.69-.52-42.09-1.05-62.96-1.05-14.89,0-28.17.27-40.62.82-.27.01-.55.02-.82.02h0c-6.49,0-12.33-4.03-14.91-10.27-2.41-5.85-1.23-12.14,3.09-16.42,4.05-4.02,9.03-4.19,13.42-4.34,5.47-.19,9.81-.33,12.26-6.66l-.11-163.43c-1.55-8.38-9.01-17-18.85-17-.5,0-1.01.02-1.51.07l-1.09.1v-7.1h72.25l2.14,7.11-1.46-.11c-.46-.04-.92-.05-1.37-.05-8.48,0-16.24,6.2-18.5,14.77-.84,23.25-.37,47.22.09,70.41.49,24.88,1,50.6-.11,75.49-.96,21.47-10.05,31.76-29.46,33.38-.8.07-1.74.1-2.87.1-1.26,0-2.61-.04-4.02-.08-1.49-.04-3.03-.09-4.56-.09-4.63,0-10.24.39-12.54,3.46-1.41,1.89-1.55,4.79-.41,8.64.32,1.09,5.26,4.79,6.38,4.99h226.48s-.21,5.45-.21,5.45l-.5.27c-1.96,1.08-4.03,1.18-6.02,1.28l-.71.04c-14.93.85-31.13,1.27-49.55,1.27Z"/>
        <path class="cls-2" d="M80.95,21.32l1.51,5c-.49-.04-.97-.06-1.45-.06-9.17,0-17.22,6.82-19.49,15.62-1.76,48.25,2.13,97.91-.03,146-.86,19.21-8.04,30.72-28.55,32.42-.85.07-1.78.1-2.78.1-2.59,0-5.6-.17-8.58-.17-8.84,0-17.42,1.5-13.91,13.39.49,1.65,6.16,5.7,7.29,5.7h225.5l-.15,3.85c-1.98,1.08-4.12,1.07-6.31,1.2-16.32.93-32.85,1.27-49.49,1.27-41.73,0-84.17-2.1-125.93-2.1-13.64,0-27.21.22-40.65.82-.26.01-.52.02-.78.02-12.67,0-20.26-15.91-11.11-24.98,8.49-8.41,21.16,1.29,25.98-11.52l-.11-163.7c-1.69-9.35-9.9-17.91-19.85-17.91-.53,0-1.06.02-1.6.07v-5h70.51M240.45,239.32h0M82.44,19.32H8.46v2s0,5,0,5v2.19s2.18-.2,2.18-.2c.47-.04.95-.07,1.41-.07,9.28,0,16.33,8.16,17.85,16.1l.11,163.14c-2.22,5.54-6.04,5.67-11.29,5.85-4.57.16-9.76.33-14.09,4.63-4.61,4.57-5.88,11.28-3.31,17.51,2.72,6.62,8.94,10.9,15.83,10.9.29,0,.59,0,.88-.02,12.41-.55,25.68-.82,40.55-.82,20.86,0,42.25.53,62.94,1.05,20.7.52,42.11,1.05,62.99,1.05,18.43,0,34.66-.42,49.6-1.27l.7-.04c2.11-.11,4.29-.22,6.45-1.4l.99-.54.04-1.13.15-3.85.08-2.08H15.15c-1.22-.46-5.02-3.31-5.59-4.34-1.02-3.49-.93-6.08.28-7.69,2.03-2.71,7.34-3.06,11.74-3.06,1.51,0,3.05.05,4.53.09,1.42.04,2.77.08,4.05.08,1.15,0,2.12-.03,2.95-.1,20.02-1.67,29.39-12.25,30.38-34.33,1.12-24.92.61-50.66.12-75.55-.46-23.14-.93-47.06-.09-70.24,2.18-8.08,9.51-13.92,17.5-13.92.43,0,.87.02,1.3.05l2.92.23-.84-2.8-1.51-5-.43-1.42h0Z"/>
      </g>
      <g>
        <path class="cls-1" d="M262.95,254.4c-9.26-.02-13.47-6.7-13.47-12.9,0-6.68,4.57-13.45,13.28-13.45,1.34,0,2.76.17,4.21.5,1.65.38,3.17,1.28,4.63,2.15,1.8,1.07,3.5,2.08,5.29,2.08s3.49-1.02,5.34-3.11c3.4-3.85,16.55-31.5,17.15-36.08,1.61-12.2-3.38-22.07-8.66-32.52-1.1-2.17-2.23-4.42-3.31-6.69-1.71-3.61-3.61-7.74-5.62-12.11-6.97-15.16-15.65-34.03-22.98-45.11-2.97-4.48-5.16-5.44-10.22-6.85l-.85-.24.77-5.18,51.36.36.74,5.13-1.24-.09c-1.11-.08-2.04-.12-2.91-.12-3.55,0-5.93.66-7.07,1.95-.68.77-.94,1.79-.8,3.12l29.37,60.79,38.3-75.83c.96-3.81.34-7.39-1.75-10.1-2-2.58-5.06-4.01-8.63-4.01-.74,0-1.5.06-2.27.19l-1.16.19v-7.18h42.23l-1.34,6.49-.74.07c-5.29.47-12.75,1.84-16.48,8.25l-83.97,170.03-.04.06c-4.18,6.09-11.87,10.18-19.13,10.18h-.03Z"/>
        <path class="cls-2" d="M383.45,60.32l-.94,4.56c-6.74.6-13.6,2.46-17.25,8.75l-83.97,170.03c-3.93,5.72-11.31,9.75-18.3,9.75-.01,0-.02,0-.03,0-17.23-.03-15.95-24.35-.19-24.35,1.24,0,2.57.15,3.99.48,3.46.79,6.51,4.26,10.14,4.26,1.84,0,3.82-.88,6.09-3.45,3.38-3.82,16.74-31.66,17.39-36.61,1.99-15.1-5.81-26.59-12.06-39.77-7.75-16.34-19.2-43.04-28.66-57.34-3.08-4.65-5.48-5.78-10.78-7.26l.51-3.45,49.63.35.44,3.05c-.92-.07-1.94-.12-2.98-.12-4.52,0-9.52,1-8.84,6.35l30.32,62.77,39.26-77.73c2.2-8.49-3.21-15.46-11.33-15.46-.79,0-1.6.07-2.43.2v-5.01h40.01M385.91,58.32h-44.45v2s0,5.01,0,5.01v2.35s2.32-.38,2.32-.38c.71-.12,1.42-.17,2.11-.17,3.25,0,6.04,1.29,7.84,3.62,1.88,2.43,2.45,5.67,1.6,9.13l-37.33,73.92-28.41-58.8c-.11-1.42.4-2,.57-2.19.65-.73,2.27-1.61,6.32-1.61.84,0,1.77.04,2.84.11l2.48.18-.35-2.46-.44-3.05-.24-1.7h-1.72s-49.63-.36-49.63-.36h-1.74s-.26,1.71-.26,1.71l-.51,3.45-.26,1.75,1.7.47c4.9,1.37,6.86,2.22,9.65,6.44,7.29,11.01,15.95,29.85,22.91,44.98,2.01,4.37,3.9,8.49,5.62,12.11,1.08,2.29,2.22,4.54,3.32,6.72,5.21,10.31,10.13,20.04,8.56,31.94-.57,4.33-13.69,31.9-16.91,35.54-1.65,1.86-3.15,2.77-4.59,2.77-1.51,0-3.1-.94-4.77-1.94-1.53-.91-3.12-1.85-4.92-2.27-1.52-.35-3.01-.53-4.43-.53-9.26,0-14.27,7.44-14.28,14.45,0,6.68,4.52,13.88,14.47,13.9,7.61,0,15.63-4.27,19.99-10.62l.08-.12.06-.13,83.94-169.97c2.7-4.6,7.54-6.98,15.67-7.7l1.48-.13.3-1.46.94-4.56.5-2.4h0ZM383.45,62.32h0,0Z"/>
      </g>
      <g>
        <path class="cls-1" d="M480.32,193.19c-6.29,0-13.03-5.03-13.9-16.25-.93-11.95-.51-24.65-.1-36.92.4-12.22.82-24.86-.09-36.79-1.93-7.31-8.98-12.73-16.8-12.9l-.69-.02-.23-.65c-.43-1.21.08-3.29.82-4.35.57-.81,1.2-.98,1.62-.98h40.52l-.09,5.83-.88.1c-18.98,2.07-18.04,18.42-17.13,34.23.3,5.24.59,10.21.2,14.71,8.32-1.22,12.5-8.34,13.63-14.8.25-1.41.28-2.81.31-4.29.03-1.61.07-3.27.4-5.02,3.36-17.79,19.55-30.71,38.5-30.71,5.73,0,11.27,1.19,16.45,3.54,23.71,10.74,22.67,34.75,21.66,57.97-.32,7.42-.62,14.43-.11,20.9.95,12.04,6.09,18.42,16.18,20.07l.62.1,1.57,5.37h-26.83c-1.53,0-9.55-4.95-10.78-6.27-3.7-3.97-6.22-10.37-6.75-17.11-.77-9.79-.25-20.79.25-31.44.59-12.53,1.2-25.48-.29-36.45-1.23-9.04-7.23-10.94-12.04-10.94-10.14,0-23.88,8.28-28.82,17.37-5.55,10.21-4.78,29.92-4.1,47.32.37,9.43.72,18.34.08,25.16-.82,8.69-7.24,13.24-13.17,13.24Z"/>
        <path class="cls-2" d="M490.45,85.32l-.06,3.93c-26.8,2.92-15.78,32.6-17.93,51.06,8.71-.66,14.28-7.48,15.74-15.75.54-3.08.09-6.07.7-9.3,3.47-18.36,20.09-29.89,37.52-29.89,5.39,0,10.86,1.1,16.04,3.45,30.56,13.85,18.86,51.32,20.96,78.04.88,11.1,5.46,19.09,17.02,20.98l1.02,3.48h-25.5c-1.06,0-8.83-4.65-10.05-5.95-3.95-4.24-6.04-10.82-6.49-16.51-1.68-21.23,2.73-47.53-.05-67.95-1.16-8.51-6.46-11.8-13.03-11.81-10.68,0-24.71,8.72-29.7,17.89-8.68,15.97-2.31,53.33-4.14,72.86-.74,7.91-6.41,12.33-12.17,12.33s-12.08-4.76-12.9-15.33c-1.85-23.8,1.65-49.77-.2-73.8-2.05-7.91-9.64-13.56-17.77-13.74-.4-1.11.44-3.99,1.5-3.99h39.5M492.48,83.32h-41.53c-.54,0-1.58.18-2.44,1.4-.91,1.29-1.5,3.71-.94,5.27l.46,1.29,1.37.03c7.35.16,13.98,5.23,15.84,12.07.9,11.86.48,24.43.08,36.59-.41,12.3-.83,25.02.11,37.03.92,11.87,8.15,17.18,14.9,17.18,6.38,0,13.29-4.86,14.16-14.14.65-6.88.3-15.83-.07-25.29-.67-17.27-1.44-36.84,3.98-46.8,4.71-8.66,18.29-16.85,27.94-16.85,6.42,0,10.14,3.39,11.05,10.08,1.48,10.88.87,23.79.29,36.27-.5,10.68-1.02,21.72-.25,31.57.55,6.96,3.17,13.59,7.02,17.72,1.09,1.18,9.45,6.59,11.51,6.59h28.17l-.75-2.56-1.02-3.48-.35-1.21-1.24-.2c-9.56-1.56-14.44-7.65-15.35-19.17-.51-6.41-.2-13.39.12-20.78.97-22.45,2.07-47.9-22.25-58.92-5.31-2.41-10.99-3.63-16.86-3.63-19.43,0-36.03,13.26-39.48,31.52-.35,1.83-.38,3.54-.41,5.18-.03,1.44-.06,2.8-.29,4.14-1.02,5.78-4.58,12.1-11.56,13.75.24-4.21-.02-8.77-.29-13.54-.92-16.05-1.79-31.21,16.24-33.18l1.76-.19.03-1.77.06-3.93.03-2.03h0ZM490.45,87.32h0,0Z"/>
      </g>
      <g>
        <path class="cls-1" d="M418.5,194.35c-11.95,0-23.77-.39-31.61-1.05-10.59-.88-17.01-4.01-24.51-11.95-8.82-9.34-11.49-21.88-7.14-33.54,4.64-12.43,16.03-21,29.73-22.36,1.86-.19,3.97-.28,6.44-.28,3.35,0,6.96.17,10.46.33,3.52.16,7.17.33,10.56.33,4.59,0,8.02-.3,10.81-.96.59-.14,4.21-1.87,4.9-2.35.37-.31,4.24-4.14,4.56-4.52,2.83-4.23,3.49-9.7,1.78-14.97-1.71-5.27-5.6-9.47-10.42-11.25-3.66-1.35-16.05-1.97-26-1.97-5.82,0-10.65.21-12.91.56-2.22.34-3.58.96-3.85,1.74-.5,1.47,2.19,4.29,4.16,6.36,1.34,1.41,2.51,2.63,3.06,3.68,2.25,4.28,2.21,8.74-.1,12.56-2.47,4.08-7.15,6.71-11.93,6.71-3.91,0-7.41-1.78-9.85-5-3.21-4.24-3.84-10.15-1.72-16.2,2.48-7.08,8.21-12.88,14.25-14.41,3.99-1.01,18.66-1.09,23.06-1.09,9.41,0,17.75.28,20.76.69,21,2.87,19.53,30.29,18.36,52.32-.5,9.28-.97,18.05.29,23.65.77,3.42,3.49,4.18,7.87,5.13,4.92,1.07,11.05,2.41,11.97,11.18.44,4.18-.42,7.63-2.55,10.25-2.45,3.01-6.45,4.81-11.88,5.36-6.71.67-16.85,1.04-28.54,1.04ZM399.95,132.32c-5.34,0-14.55,9.64-16.99,14.56-3.93,7.92-3.58,17.98.9,26.27,3.99,7.39,10.67,12.15,18.32,13.07,4.94.59,15.57.99,26.45.99,9.57,0,17.31-.3,21.24-.82,2.7-.36,4.81-2.15,5.51-4.66.72-2.6-.24-5.34-2.51-7.16-2.6-2.08-6.11-2.36-9.51-2.36-1.1,0-2.23.03-3.37.07-1.17.04-2.35.07-3.52.07-3.19,0-6.89-.23-10.17-1.93-4.35-2.25-11.84-11.3-11.84-16.59v-21.5h-14.5Z"/>
        <path class="cls-2" d="M402.23,85.73c8.86,0,17.54.26,20.63.68,28.69,3.92,13.52,56.07,17.8,75.2,2.13,9.5,18.3,1.71,19.81,16.2.97,9.3-4.89,13.64-13.54,14.51-7.16.72-17.72,1.04-28.44,1.04-11.7,0-23.61-.38-31.53-1.04-10.77-.9-16.78-4.14-23.86-11.64-19.22-20.35-5.28-51.51,21.97-54.22,1.98-.2,4.11-.27,6.34-.27,6.68,0,14.22.66,21.02.66,4.05,0,7.84-.23,11.04-.98.75-.18,4.51-1.99,5.24-2.5.28-.19,4.6-4.46,4.79-4.74,6.46-9.64,1.63-23.82-9.08-27.77-3.79-1.4-16.18-2.03-26.35-2.03-5.67,0-10.65.2-13.05.57-11.25,1.73.74,9.62,2.63,13.23,4.99,9.51-3.05,17.81-11.15,17.81-3.3,0-6.61-1.38-9.05-4.6-7.35-9.71,1.15-26.28,11.98-29.03,2.94-.75,12.99-1.06,22.81-1.06M428.64,188.2c8.72,0,17.06-.26,21.37-.83,6.71-.89,9.08-9.12,3.49-13.59-2.72-2.18-6.3-2.58-10.14-2.58-2.25,0-4.58.14-6.89.14-3.43,0-6.8-.3-9.71-1.82-4.17-2.16-11.3-11.01-11.3-15.7v-22.5h-15.5c-5.85,0-15.38,10.06-17.89,15.11-7.95,16.02,1.54,38.56,20,40.77,5.26.63,16.18,1,26.57,1M402.23,83.73c-4.43,0-19.2.08-23.3,1.12-6.35,1.61-12.36,7.66-14.94,15.05-2.23,6.37-1.55,12.62,1.86,17.13,2.64,3.48,6.42,5.4,10.65,5.4,5.13,0,10.15-2.82,12.79-7.19,2.5-4.13,2.54-8.94.13-13.54-.62-1.18-1.82-2.44-3.22-3.91-1.16-1.22-4.24-4.45-3.93-5.34,0,0,.38-.66,3.06-1.08,2.21-.34,6.98-.54,12.75-.54,11.87,0,22.67.8,25.66,1.9,4.53,1.67,8.2,5.64,9.81,10.62,1.6,4.94,1,10.06-1.64,14.07-.55.6-3.76,3.78-4.38,4.34-.74.47-3.9,1.98-4.53,2.16-2.68.63-6.05.92-10.55.92-3.37,0-7.01-.17-10.52-.33-3.51-.16-7.14-.33-10.51-.33-2.5,0-4.64.09-6.54.28-14.08,1.4-25.79,10.22-30.57,23.01-4.49,12.03-1.74,24.95,7.35,34.58,7.69,8.14,14.27,11.35,25.15,12.26,7.87.66,19.72,1.05,31.7,1.05s21.9-.37,28.64-1.05c5.71-.57,9.93-2.5,12.56-5.72,2.31-2.83,3.24-6.53,2.77-10.98-.99-9.49-7.79-10.97-12.75-12.05-4.11-.89-6.47-1.54-7.1-4.37-1.22-5.47-.76-14.17-.26-23.38,1.2-22.44,2.7-50.36-19.22-53.36-3.52-.48-13.04-.7-20.9-.7h0ZM428.64,186.2c-10.85,0-21.43-.39-26.34-.98-7.33-.88-13.73-5.45-17.56-12.55-4.33-8.01-4.67-17.72-.88-25.35,2.49-5.02,11.56-14,16.09-14h13.5v20.5c0,5.7,7.72,15.06,12.38,17.48,3.47,1.8,7.32,2.04,10.63,2.04,1.19,0,2.39-.04,3.55-.07,1.16-.03,2.25-.07,3.34-.07,3.23,0,6.53.26,8.89,2.14,1.98,1.59,2.8,3.87,2.17,6.11-.6,2.16-2.35,3.63-4.68,3.94-3.88.52-11.58.81-21.1.81h0Z"/>
      </g>
      <g>
        <path class="cls-1" d="M221.58,194.2c-10.76,0-21.9-.43-28.73-.83-36.8-2.16-54.36-27.75-55.43-52.14-1.05-23.73,13.69-51.62,48.52-56.77.92-.14,1.88-.2,3.04-.2.67,0,1.33.02,1.99.04.64.02,1.27.04,1.91.04,1.43,0,3.14-.09,4.97-.73,6.09-2.15,11.21-9.69,11.4-16.81.02-.59-.17-1.3-.36-2.05-.23-.88-.49-1.87-.47-2.9.04-2.65.17-6.08.3-9.71.42-11.18.94-25.1-.46-31.89-.84-4.06-5.87-9.76-10.16-11.51-1-.41-2.08-.52-3.13-.64-1.63-.18-3.16-.34-4.07-1.59-.7-.97-.83-2.36-.41-4.39l.18-.88.9.09c1.22.12,2.57.18,4.12.18h0c2.25,0,4.64-.13,6.96-.25,2.33-.13,4.75-.25,7.04-.25,2.09,0,3.86.11,5.43.33,8.22,1.16,18.57,9.35,20.11,18.56v.08s.27,141.73.27,141.73c.67,3.25,3.39,3.95,7.75,4.81,4.66.92,10.47,2.07,11.98,9.33.97,4.7.36,8.78-1.79,11.81-2.13,3.01-5.73,4.93-10.41,5.57-4.74.65-11.95.97-21.42.97ZM208.45,83.7c-3.83,3.4-8.33,5.23-12.69,7-2.89,1.17-5.88,2.39-8.72,4.06-15.38,9.05-24.27,25.53-23.78,44.09s10.19,34.55,25.98,42.76c8.98,4.67,25.91,6.34,38.75,6.34,4.74,0,9.19-.21,12.86-.62,4.16-.46,9.12-2.14,9.16-7.51.01-1.94-.53-3.43-1.65-4.56-2.56-2.58-7.75-2.92-12.48-2.92-1.15,0-2.3.02-3.39.04-1.02.02-2.01.04-2.93.04-1.61,0-2.74-.06-3.66-.19-8.03-1.14-16.3-10.99-17.43-18.25v-.08s-.01-70.2-.01-70.2Z"/>
        <path class="cls-2" d="M209.66,2c1.84,0,3.62.08,5.29.32,8.21,1.16,17.87,9.4,19.26,17.74l.26,141.74c1.72,9.01,17.2,1.96,19.74,14.25,1.86,8.98-2.36,14.96-11.35,16.19-5.21.71-13.05.96-21.28.96-10.51,0-21.63-.42-28.68-.83-70.93-4.17-72.13-97.28-6.83-106.92.99-.15,1.95-.19,2.9-.19,1.31,0,2.6.08,3.9.08,1.72,0,3.46-.14,5.3-.79,6.82-2.41,11.87-10.55,12.07-17.73.04-1.51-.86-3.21-.84-4.96.15-10.59,1.71-32.61-.18-41.81-.96-4.65-6.4-10.46-10.76-12.24-3.78-1.54-8.29.63-7.01-5.49,1.35.14,2.77.19,4.22.19,4.55,0,9.46-.51,13.99-.51M227.99,188.95c4.87,0,9.35-.23,12.97-.63,5-.55,10.01-2.74,10.05-8.5.05-7.6-7.79-8.49-15.13-8.49-2.23,0-4.42.08-6.33.08-1.34,0-2.54-.04-3.52-.18-7.32-1.04-15.49-10.38-16.59-17.41v-72.5c-6.35,6.91-14.99,7.91-22.92,12.58-33.47,19.69-32.01,70.78,2.24,88.6,8.99,4.68,25.6,6.45,39.21,6.45M209.66,0c-2.32,0-4.74.13-7.09.26-2.3.12-4.68.25-6.9.25-1.51,0-2.83-.06-4.02-.18l-1.79-.18-.37,1.76c-.3,1.46-.58,3.59.58,5.18,1.17,1.61,3.08,1.81,4.77,2,.98.11,2,.22,2.86.57,3.96,1.62,8.79,7.06,9.56,10.79,1.38,6.67.84,21.11.44,31.65-.14,3.63-.26,7.06-.3,9.73-.02,1.16.26,2.23.51,3.16.18.68.34,1.32.33,1.77-.18,6.74-5,13.87-10.74,15.9-1.69.6-3.29.68-4.64.68-.63,0-1.26-.02-1.88-.04-.67-.02-1.34-.04-2.02-.04-1.21,0-2.22.07-3.19.21-15.82,2.34-28.89,9.61-37.81,21.03-8.05,10.3-12.15,23.36-11.56,36.77,1.09,24.85,18.95,50.9,56.37,53.1,6.86.4,18.02.83,28.8.83,9.52,0,16.77-.33,21.55-.98,4.97-.68,8.8-2.75,11.09-5.99,2.31-3.26,2.98-7.61,1.95-12.59-1.64-7.92-8.07-9.18-12.76-10.11-4.47-.88-6.4-1.5-6.94-3.94l-.26-141.54v-.16s-.03-.16-.03-.16c-1.61-9.62-12.39-18.17-20.95-19.39-1.61-.23-3.44-.34-5.57-.34h0ZM227.99,186.95c-12.73,0-29.47-1.64-38.29-6.23-15.46-8.04-24.97-23.71-25.44-41.9-.47-18.19,8.23-34.34,23.29-43.2,2.78-1.64,5.74-2.84,8.59-4,3.83-1.56,7.77-3.15,11.31-5.81v68.16l.02.15c1.19,7.59,9.86,17.89,18.28,19.08.97.14,2.14.2,3.8.2.93,0,1.92-.02,2.95-.04,1.09-.02,2.23-.04,3.38-.04,4.26,0,9.46.3,11.77,2.63.93.93,1.37,2.19,1.36,3.85-.03,3.73-2.81,5.92-8.27,6.53-3.63.4-8.04.61-12.75.61h0Z"/>
      </g>
      <g>
        <path class="cls-1" d="M752.4,194.3c-12.19,0-23.64-.41-31.41-1.12-22.99-2.1-33.35-18.54-33.41-33.89-.06-14.74,10.05-31.62,32.4-33.85,2.29-.23,4.81-.34,7.7-.34,3.11,0,6.31.13,9.4.25,3.06.12,6.22.25,9.26.25,2.45,0,4.59-.08,6.56-.25,11.37-.97,16.52-9.15,16.58-16.84.06-7.91-5.44-16.97-17.64-18.19-3.55-.36-10.74-.6-17.49-.6s-11.67.23-14.18.64c-1.9.31-4.76,1.85-4.75,3.45,0,.8,1.19,1.75,2.55,2.84,2.9,2.32,6.88,5.49,6.52,12.18-.44,8.1-7.2,12.34-13.66,12.34-5.09,0-11.54-2.79-12.96-10.65-.94-5.17.49-10.78,4.02-15.8,3.78-5.39,9.45-9.18,15.15-10.15,3.73-.63,12.48-.85,19.42-.85s15.7.22,19.44.85c9.72,1.63,18.5,10.66,19.57,20.13.89,7.92.37,17.23-.13,26.24-.57,10.3-1.17,20.95.35,29.46.89,4.96,3.97,5.44,7.88,6.05,3.91.62,8.35,1.31,11,6.7,2.77,5.63,1.61,9.89.15,12.47-2.44,4.31-7.54,7.2-13.64,7.71-7.13.61-17.58.95-28.67.95ZM733.95,132.32c-2.57,0-13.09,8.66-15.11,11.63-5.21,7.66-5.92,17.98-1.85,26.92,3.9,8.56,11.44,14.3,20.19,15.34,4.86.58,15.28.97,25.92.97,9.34,0,16.91-.29,20.77-.81,3.85-.51,5.66-3.61,5.76-6.46.09-2.82-1.45-6.45-6.11-7.39-1.56-.31-3.17-.46-5.08-.46-1.36,0-2.72.08-4.03.15-1.31.07-2.65.15-3.99.15-3.35,0-7.38-.4-11.85-3.38-5.29-3.52-10.11-12.18-10.11-18.17v-18.5h-14.5Z"/>
        <path class="cls-2" d="M736.45,84.72c7.97,0,15.95.28,19.27.84,9.08,1.52,17.69,9.92,18.74,19.26,1.9,16.86-2.64,39.67.24,55.76,1.96,10.97,13.96,2.85,18.97,13.02,4.97,10.1-2.57,17.89-12.67,18.75-7.47.63-17.97.95-28.59.95-11.54,0-23.21-.37-31.32-1.11-43.18-3.94-43.16-61.54-1.01-65.75,2.48-.25,5.02-.33,7.6-.33,6.17,0,12.53.5,18.66.5,2.25,0,4.48-.07,6.65-.25,23.68-2.01,23.32-34.58-1.05-37.02-3.55-.36-10.75-.61-17.6-.61-5.88,0-11.5.19-14.34.66-2.06.34-5.6,2.08-5.59,4.44.01,3.48,9.6,5.19,9.07,14.96-.4,7.41-6.57,11.39-12.66,11.39-5.41,0-10.77-3.14-11.98-9.83-1.98-10.92,7.61-22.97,18.34-24.78,3.32-.56,11.29-.84,19.26-.84M763.1,188.19c8.52,0,16.66-.25,20.91-.81,8.62-1.14,9.16-13.92-.28-15.82-1.82-.37-3.57-.48-5.28-.48-2.75,0-5.38.29-8.03.29-3.65,0-7.31-.56-11.3-3.21-4.91-3.27-9.67-11.53-9.67-17.33v-19.5h-15.5c-3.08,0-13.9,9.07-15.94,12.06-11.25,16.53-1.06,41.42,19.05,43.82,5.18.62,15.87.98,26.04.98M736.45,82.72h0c-6.99,0-15.8.23-19.59.87-5.96,1.01-11.86,4.95-15.8,10.56-3.68,5.24-5.17,11.12-4.18,16.55,1.26,6.97,6.74,11.48,13.95,11.48s14.19-4.56,14.66-13.29c.39-7.2-3.99-10.7-6.89-13.02-.83-.66-2.09-1.67-2.18-2.08,0-.71,2.06-2.14,3.92-2.44,2.42-.4,7.53-.63,14.01-.63,6.72,0,13.88.25,17.4.6,11.65,1.17,16.8,9.48,16.74,17.19-.05,7.23-4.92,14.93-15.67,15.85-1.94.16-4.06.24-6.48.24-3.02,0-6.17-.13-9.22-.25-3.1-.12-6.31-.25-9.44-.25-2.93,0-5.48.11-7.8.34-10.32,1.03-18.95,5.22-24.96,12.12-5.41,6.21-8.37,14.28-8.33,22.73.04,8.52,3.11,16.63,8.67,22.83,6.19,6.92,15.06,11.08,25.65,12.05,7.8.71,19.28,1.12,31.5,1.12,11.11,0,21.59-.35,28.76-.96,6.43-.55,11.82-3.62,14.42-8.22,2.23-3.95,2.19-8.71-.12-13.41-2.88-5.86-7.8-6.63-11.74-7.25-4.25-.67-6.33-1.17-7.05-5.24-1.5-8.39-.91-18.98-.34-29.23.5-9.05,1.02-18.41.12-26.41-1.13-10.05-10.09-19.28-20.39-21.01-3.8-.64-12.61-.86-19.6-.86h0ZM763.1,186.19c-10.61,0-20.97-.39-25.8-.96-8.39-1-15.64-6.52-19.4-14.77-3.93-8.63-3.25-18.57,1.77-25.95,1.96-2.88,12-11.01,14.3-11.19h13.48v17.5c0,6.38,4.93,15.25,10.56,19,4.69,3.12,8.9,3.55,12.41,3.55,1.36,0,2.73-.07,4.05-.15,1.3-.07,2.65-.15,3.98-.15,1.84,0,3.39.14,4.88.44,4.05.82,5.39,3.94,5.31,6.38-.08,2.25-1.4,5.04-4.89,5.5-3.82.51-11.34.8-20.64.8h0Z"/>
      </g>
      <g>
        <path class="cls-1" d="M76.42,193.32l.21-5.72.81-.13c17.96-2.85,17.55-18.46,17.15-33.55-.04-1.39-.07-2.77-.09-4.13-.02-1.07-.26-2.12-.52-3.24-.27-1.18-.55-2.39-.57-3.69-.04-3.6.12-8,.29-12.66.36-9.84.77-20.99-.67-27.75-1.7-7.99-9.5-12.17-16.34-12.17h-1.23s0-5.98,0-5.98h26.5c6.56,0,16.96,10.87,18.26,17.54v.1c.97,10.83.53,22.39.1,33.57-.42,11.13-.86,22.64.1,33.24.67,7.43,4.26,13.43,9.58,16.06.95.47,2.12.76,3.25,1.04,2.99.74,6.71,1.67,6.21,6.56l-.09.9h-62.94Z"/>
        <path class="cls-2" d="M101.95,85.32c6.08,0,16.08,10.59,17.27,16.73,1.9,21.57-1.75,45.53.19,66.81.62,6.82,3.77,13.72,10.14,16.86,3.68,1.82,9.48.98,8.9,6.6h-61l.14-3.86c20.55-3.26,18.15-22.54,17.9-38.68-.04-2.36-1.05-4.55-1.08-6.92-.13-11.27,1.74-30.51-.4-40.6-1.7-8.01-9.44-12.97-17.32-12.97-.08,0-.15,0-.23,0v-3.98s25.49,0,25.49,0M101.95,83.32h-27.5v2s0,3.98,0,3.98v2.02s2.02-.03,2.02-.03h.21c6.43,0,13.78,3.91,15.36,11.38,1.41,6.64,1,17.72.65,27.5-.17,4.67-.33,9.08-.29,12.7.02,1.4.31,2.67.59,3.9.24,1.06.48,2.06.49,3.03.02,1.36.06,2.75.09,4.14.4,15.33.78,29.82-16.31,32.53l-1.63.26-.06,1.65-.14,3.86-.07,2.07h64.88l.18-1.8c.59-5.75-3.95-6.88-6.96-7.63-1.13-.28-2.19-.55-3.05-.97-5.01-2.47-8.39-8.17-9.03-15.25-.96-10.54-.52-22.01-.1-33.12.43-11.21.87-22.8-.09-33.69v-.1s-.03-.1-.03-.1c-1.37-7.08-12.12-18.35-19.24-18.35h0Z"/>
      </g>
      <g>
        <path class="cls-1" d="M102.11,66.42c-6.85,0-12.38-5.95-13.76-11.7-1.33-5.55,1.01-10.47,6.28-13.15,2.3-1.17,4.61-1.77,6.87-1.77,5.34,0,10.14,3.47,12.23,8.85,2.03,5.22.92,10.63-2.9,14.12-2.62,2.4-5.63,3.66-8.71,3.66Z"/>
        <path class="cls-2" d="M101.49,40.79c10.53,0,16.44,14.11,8.66,21.23-2.62,2.4-5.39,3.4-8.04,3.4-10.78,0-19.43-16.64-7.03-22.97,2.26-1.15,4.42-1.66,6.41-1.66M101.5,38.79h0c-2.42,0-4.88.63-7.32,1.88-5.7,2.91-8.24,8.25-6.79,14.28,1.47,6.13,7.39,12.47,14.74,12.47,3.34,0,6.58-1.36,9.39-3.92,4.13-3.78,5.34-9.61,3.16-15.22-2.24-5.76-7.41-9.49-13.16-9.49h0Z"/>
      </g>
    </g>
  </g>
</svg>